#!OML:ASF I:\Actors\actors\Patient Classification 2\Patient 1\Session 1\actor1.ASF
:FULLY-SPECIFIED
:DEGREES
576
root -0.913491 18.239 5.67619 1.61808 7.59967 -5.31515
lowerback 8.19254 1.04828 5.64325
upperback 0.122451 1.9626 0.711266
thorax -4.30864 0.862086 -2.65907
lowerneck -18.1529 -4.81904 -4.87001
upperneck 24.0803 -6.46017 4.17615
head 11.1038 -2.85955 1.36621
rclavicle 4.7025e-014 -5.76476e-015
rhumerus 8.26351 27.5995 -50.9592
rradius 102.929
rwrist -16.2451
rhand 9.9052 -29.7743
rfingers 7.12502
rthumb 35.0364 -56.3219
lclavicle 4.7025e-014 -5.76476e-015
lhumerus 2.05428 -38.1943 83.7307
lradius 87.1677
lwrist 48.7133
lhand -5.54016 -25.5083
lfingers 7.12502
lthumb 20.2743 3.45357
rfemur 0 0 0
rtibia 0
rfoot 0 0
rtoes 0
lfemur 13.9229 -7.78459 -10.7685
ltibia -20.6925
lfoot 1.99415 13.15
ltoes -12.6043
577
root -0.915386 18.243 5.68023 1.79977 7.3789 -5.35402
lowerback 8.27712 1.01997 5.70232
upperback -0.1243 1.94174 0.613512
thorax -4.6114 0.835589 -2.79813
lowerneck -17.6153 -4.78445 -4.71039
upperneck 23.3875 -6.49025 4.31852
head 10.7437 -2.85799 1.3967
rclavicle 9.93923e-015 -3.18055e-015
rhumerus 7.20723 27.4823 -52.3247
rradius 103.372
rwrist -15.6349
rhand 6.00721 -29.9615
rfingers 7.12502
rthumb 31.3302 -57.2995
lclavicle 9.93923e-015 -3.18055e-015
lhumerus 1.5361 -38.1472 83.9065
lradius 87.2981
lwrist 48.7392
lhand -5.75374 -25.5511
lfingers 7.12502
lthumb 20.0691 3.43239
rfemur 0 0 0
rtibia 0
rfoot 0 0
rtoes 0
lfemur 13.7677 -7.80902 -10.7104
ltibia -20.6258
lfoot 1.87633 13.4234
ltoes -12.5107
578
root -0.917774 18.2474 5.6866 1.98594 7.16887 -5.38274
lowerback 7.94679 0.993352 5.63022
upperback -0.148361 1.87522 0.564796
thorax -4.45689 0.808084 -2.79196
lowerneck -17.1597 -4.72551 -4.48398
upperneck 22.463 -6.47814 4.4328
head 10.3145 -2.83753 1.41048
rclavicle 3.07619e-014 -1.98785e-015
rhumerus 6.1645 27.2237 -53.6761
rradius 103.674
rwrist -14.8997
rhand 1.63146 -30.3342
rfingers 7.12502
rthumb 27.1521 -58.401
lclavicle 3.07619e-014 -1.98785e-015
lhumerus 1.38667 -37.9359 83.9474
lradius 87.3747
lwrist 48.7752
lhand -5.70093 -25.4925
lfingers 7.12502
lthumb 20.1198 3.48567
rfemur 0 0 0
rtibia 0
rfoot 0 0
rtoes 0
lfemur 13.6293 -7.89927 -10.6638
ltibia -20.5777
lfoot 1.73822 13.7324
ltoes -12.2608
579
root -0.921854 18.2502 5.69323 2.1474 6.94515 -5.39243
lowerback 7.58641 0.960062 5.46726
upperback -0.132086 1.79025 0.547147
thorax -4.24838 0.775945 -2.69965
lowerneck -16.9058 -4.68559 -4.4134
upperneck 21.6625 -6.47107 4.65803
head 9.98469 -2.8164 1.48395
rclavicle -5.84675e-014 -2.92213e-014
rhumerus 4.42648 26.7981 -55.7028
rradius 104.045
rwrist -14.0931
rhand -1.83244 -30.3923
rfingers 7.12502
rthumb 23.8341 -58.9337
lclavicle -5.84675e-014 -2.92213e-014
lhumerus 1.14973 -37.5847 84.13
lradius 87.4562
lwrist 48.5992
lhand -5.49087 -25.2727
lfingers 7.12502
lthumb 20.3217 3.68415
rfemur 0 0 0
rtibia 0
rfoot 0 0
rtoes 0
lfemur 13.5323 -7.99469 -10.6426
ltibia -20.5424
lfoot 1.58307 14.0623
ltoes -12.1422
580
root -0.927764 18.2495 5.69869 2.20462 6.75667 -5.39538
lowerback 7.2995 0.910094 5.32529
upperback -0.0358325 1.68789 0.523288
thorax -3.99813 0.73685 -2.62542
lowerneck -16.8674 -4.67763 -4.41555
upperneck 20.9152 -6.49087 4.92753
head 9.72366 -2.80528 1.57603
rclavicle -7.45443e-017 1.11319e-014
rhumerus 2.16681 26.2411 -58.2369
rradius 104.629
rwrist -13.7647
rhand -5.04491 -30.6327
rfingers 7.12502
rthumb 20.7503 -59.5433
lclavicle -7.45443e-017 1.11319e-014
lhumerus 0.879023 -37.1964 84.3845
lradius 87.5892
lwrist 48.0699
lhand -5.56685 -24.974
lfingers 7.12502
lthumb 20.2487 3.99053
rfemur 0 0 0
rtibia 0
rfoot 0 0
rtoes 0
lfemur 13.5351 -7.89082 -10.6298
ltibia -20.5151
lfoot 1.50581 14.1552
ltoes -12.5531
581
root -0.933442 18.2471 5.7042 2.18331 6.56061 -5.42614
lowerback 7.02906 0.815829 5.34586
upperback 0.13735 1.53674 0.434084
thorax -3.67513 0.67291 -2.70576
lowerneck -16.8491 -4.6143 -4.33074
upperneck 20.0601 -6.46039 5.25301
head 9.42788 -2.76002 1.67884
rclavicle -1.15544e-014 -2.62396e-014
rhumerus -0.308345 25.6984 -61.1022
rradius 105.357
rwrist -14.0841
rhand -8.19213 -31.2684
rfingers 7.12502
rthumb 17.724 -60.4806
lclavicle -1.15544e-014 -2.62396e-014
lhumerus 0.641557 -36.7168 84.4966
lradius 87.8827
lwrist 47.5146
lhand -6.20256 -24.3613
lfingers 7.12502
lthumb 19.6376 4.66687
rfemur 0 0 0
rtibia 0
rfoot 0 0
rtoes 0
lfemur 13.6347 -7.81648 -10.6016
ltibia -20.5029
lfoot 1.407 14.2913
ltoes -12.9399
